<svg xmlns="http://www.w3.org/2000/svg" width="627.495" height="554" viewBox="0 0 627.495 554">
  <g id="Group_43" data-name="Group 43" transform="translate(0 0)">
    <path id="Path_4" data-name="Path 4" d="M497.257,74.767l2.467-3.813a57.184,57.184,0,0,0-2.531-5.926l-1.6,1.289,1.263-1.952c-1.2-2.37-2.151-3.863-2.151-3.863s-4.948,7.8-6.6,16.054l3.166,4.893-3.505-2.831a23.129,23.129,0,0,0-.192,2.9c0,9.778,3.194,17.705,7.133,17.705s7.133-7.927,7.133-17.705a30.448,30.448,0,0,0-1.632-9.137Z" transform="translate(-253.78 -60.501)" fill="#e6e6e6"/>
    <path id="Path_5" data-name="Path 5" d="M517.594,87.652l4.441-.952a57.175,57.175,0,0,0,2.4-5.98L522.4,80.5l2.274-.487c.825-2.527,1.21-4.253,1.21-4.253s-9.013,2.015-16.02,6.684l-1.221,5.7-.477-4.48a23.113,23.113,0,0,0-2.187,1.915c-6.914,6.914-10.261,14.778-7.476,17.563s10.649-.561,17.563-7.476a30.452,30.452,0,0,0,5.307-7.614Z" transform="translate(-256.651 -64.909)" fill="#e6e6e6"/>
    <path id="Path_6" data-name="Path 6" d="M514.44,134.585c-10.3.659-21.52-.038-33.458,0V107.253a120.594,120.594,0,0,0,33.458,0Z" transform="translate(-251.875 -74.004)" fill="#e6e6e6"/>
    <path id="Path_7" data-name="Path 7" d="M629.064,171.874l1.609-2.487a37.294,37.294,0,0,0-1.651-3.865l-1.041.84.824-1.273c-.785-1.546-1.4-2.519-1.4-2.519a35.73,35.73,0,0,0-4.305,10.47l2.065,3.191-2.286-1.846a15.065,15.065,0,0,0-.125,1.891c0,6.377,2.083,11.546,4.652,11.546s4.652-5.169,4.652-11.546a19.865,19.865,0,0,0-1.064-5.958Z" transform="translate(-292.822 -89.981)" fill="#e6e6e6"/>
    <path id="Path_8" data-name="Path 8" d="M642.327,180.277l2.9-.621a37.28,37.28,0,0,0,1.565-3.9l-1.33-.142,1.483-.318c.538-1.648.789-2.773.789-2.773a35.728,35.728,0,0,0-10.448,4.359l-.8,3.717-.311-2.922a15.078,15.078,0,0,0-1.426,1.249c-4.509,4.509-6.692,9.637-4.875,11.454s6.945-.366,11.454-4.875a19.862,19.862,0,0,0,3.461-4.966Z" transform="translate(-294.695 -92.856)" fill="#e6e6e6"/>
    <path id="Path_9" data-name="Path 9" d="M640.269,210.883c-6.716.43-14.034-.025-21.819,0V193.059a78.643,78.643,0,0,0,21.819,0Z" transform="translate(-291.58 -98.788)" fill="#e6e6e6"/>
    <path id="Path_10" data-name="Path 10" d="M635.475,286.007c-5.931.379-12.392-.022-19.266,0V270.268a69.445,69.445,0,0,0,19.266,0Z" transform="translate(-290.933 -121.088)" fill="#e6e6e6"/>
    <rect id="Rectangle_18" data-name="Rectangle 18" width="259.255" height="7.242" transform="translate(119.126 58.658)" fill="#e6e6e6"/>
    <rect id="Rectangle_19" data-name="Rectangle 19" width="259.255" height="7.242" transform="translate(119.126 110.075)" fill="#e6e6e6"/>
    <rect id="Rectangle_20" data-name="Rectangle 20" width="259.255" height="7.242" transform="translate(119.126 161.491)" fill="#e6e6e6"/>
    <circle id="Ellipse_5" data-name="Ellipse 5" cx="14.484" cy="14.484" r="14.484" transform="translate(320.447 126.007)" fill="#e6e6e6"/>
    <circle id="Ellipse_6" data-name="Ellipse 6" cx="11.587" cy="11.587" r="11.587" transform="translate(323.344 128.903)" fill="#fff"/>
    <circle id="Ellipse_7" data-name="Ellipse 7" cx="2.897" cy="2.897" r="2.897" transform="translate(332.034 137.593)" fill="#e6e6e6"/>
    <rect id="Rectangle_21" data-name="Rectangle 21" width="1.448" height="11.587" transform="translate(345.069 139.765) rotate(90)" fill="#e6e6e6"/>
    <rect id="Rectangle_22" data-name="Rectangle 22" width="1.448" height="11.587" transform="translate(335.655 141.938) rotate(180)" fill="#e6e6e6"/>
    <rect id="Rectangle_23" data-name="Rectangle 23" width="9.583" height="37.933" transform="translate(241.602 74.747)" fill="#e6e6e6"/>
    <rect id="Rectangle_24" data-name="Rectangle 24" width="9.583" height="4.392" transform="translate(241.602 80.736)" fill="#ccc"/>
    <rect id="Rectangle_25" data-name="Rectangle 25" width="9.583" height="4.392" transform="translate(241.602 99.902)" fill="#ccc"/>
    <rect id="Rectangle_26" data-name="Rectangle 26" width="9.583" height="37.933" transform="translate(226.828 74.747)" fill="#e6e6e6"/>
    <rect id="Rectangle_27" data-name="Rectangle 27" width="9.583" height="4.392" transform="translate(226.828 80.736)" fill="#ccc"/>
    <rect id="Rectangle_28" data-name="Rectangle 28" width="9.583" height="4.392" transform="translate(226.828 99.902)" fill="#ccc"/>
    <rect id="Rectangle_29" data-name="Rectangle 29" width="9.583" height="37.933" transform="matrix(0.896, -0.444, 0.444, 0.896, 250.854, 78.842)" fill="#e6e6e6"/>
    <rect id="Rectangle_30" data-name="Rectangle 30" width="9.583" height="4.392" transform="matrix(0.896, -0.444, 0.444, 0.896, 253.512, 84.21)" fill="#ccc"/>
    <rect id="Rectangle_31" data-name="Rectangle 31" width="9.583" height="4.392" transform="matrix(0.896, -0.444, 0.444, 0.896, 262.016, 101.386)" fill="#ccc"/>
    <rect id="Rectangle_32" data-name="Rectangle 32" width="9.583" height="37.933" transform="translate(156.149 126.164)" fill="#e6e6e6"/>
    <rect id="Rectangle_33" data-name="Rectangle 33" width="9.583" height="4.392" transform="translate(156.149 132.153)" fill="#ccc"/>
    <rect id="Rectangle_34" data-name="Rectangle 34" width="9.583" height="4.392" transform="translate(156.149 151.319)" fill="#ccc"/>
    <rect id="Rectangle_35" data-name="Rectangle 35" width="9.583" height="37.933" transform="translate(141.375 126.164)" fill="#e6e6e6"/>
    <rect id="Rectangle_36" data-name="Rectangle 36" width="9.583" height="4.392" transform="translate(141.375 132.153)" fill="#ccc"/>
    <rect id="Rectangle_37" data-name="Rectangle 37" width="9.583" height="4.392" transform="translate(141.375 151.319)" fill="#ccc"/>
    <rect id="Rectangle_38" data-name="Rectangle 38" width="9.583" height="37.933" transform="matrix(0.896, -0.444, 0.444, 0.896, 165.401, 130.258)" fill="#e6e6e6"/>
    <rect id="Rectangle_39" data-name="Rectangle 39" width="9.583" height="4.392" transform="matrix(0.896, -0.444, 0.444, 0.896, 168.059, 135.626)" fill="#ccc"/>
    <rect id="Rectangle_40" data-name="Rectangle 40" width="9.583" height="4.392" transform="matrix(0.896, -0.444, 0.444, 0.896, 176.563, 152.802)" fill="#ccc"/>
    <rect id="Rectangle_41" data-name="Rectangle 41" width="9.583" height="37.933" transform="translate(245.947 126.164)" fill="#e6e6e6"/>
    <rect id="Rectangle_42" data-name="Rectangle 42" width="9.583" height="4.392" transform="translate(245.947 132.153)" fill="#ccc"/>
    <rect id="Rectangle_43" data-name="Rectangle 43" width="9.583" height="4.392" transform="translate(245.947 151.319)" fill="#ccc"/>
    <rect id="Rectangle_44" data-name="Rectangle 44" width="9.583" height="37.933" transform="translate(231.173 126.164)" fill="#e6e6e6"/>
    <rect id="Rectangle_45" data-name="Rectangle 45" width="9.583" height="4.392" transform="translate(231.173 132.153)" fill="#ccc"/>
    <rect id="Rectangle_46" data-name="Rectangle 46" width="9.583" height="4.392" transform="translate(231.173 151.319)" fill="#ccc"/>
    <rect id="Rectangle_47" data-name="Rectangle 47" width="9.583" height="37.933" transform="matrix(0.896, -0.444, 0.444, 0.896, 255.199, 130.258)" fill="#e6e6e6"/>
    <rect id="Rectangle_48" data-name="Rectangle 48" width="9.583" height="4.392" transform="matrix(0.896, -0.444, 0.444, 0.896, 257.857, 135.626)" fill="#ccc"/>
    <rect id="Rectangle_49" data-name="Rectangle 49" width="9.583" height="4.392" transform="matrix(0.896, -0.444, 0.444, 0.896, 266.36, 152.802)" fill="#ccc"/>
    <rect id="Rectangle_50" data-name="Rectangle 50" width="38.087" height="38.087" transform="translate(320.017 23.217)" fill="#e6e6e6"/>
    <rect id="Rectangle_51" data-name="Rectangle 51" width="22.852" height="22.852" transform="translate(327.635 30.834)" fill="#ccc"/>
    <path id="Path_11" data-name="Path 11" d="M466.064,54.143l4.846,8.393,4.845,8.393H456.373l4.846-8.393Z" transform="translate(-131.815 -15.638)" fill="#e6e6e6"/>
    <path id="Path_12" data-name="Path 12" d="M477.9,56.4l4.846,8.393,4.845,8.393H468.212l4.846-8.393Z" transform="translate(-135.234 -16.289)" fill="#e6e6e6"/>
    <circle id="Ellipse_8" data-name="Ellipse 8" cx="2.806" cy="2.806" r="2.806" transform="translate(343.27 32.037)" fill="#e6e6e6"/>
    <rect id="Rectangle_52" data-name="Rectangle 52" width="38.087" height="38.087" transform="translate(127.387 23.217)" fill="#e6e6e6"/>
    <rect id="Rectangle_53" data-name="Rectangle 53" width="22.852" height="22.852" transform="translate(135.004 30.834)" fill="#ccc"/>
    <path id="Path_13" data-name="Path 13" d="M195.2,54.143l4.845,8.393,4.846,8.393H185.509l4.845-8.393Z" transform="translate(-53.581 -15.638)" fill="#e6e6e6"/>
    <path id="Path_14" data-name="Path 14" d="M207.039,56.4l4.845,8.393,4.845,8.393H197.348l4.845-8.393Z" transform="translate(-57 -16.289)" fill="#e6e6e6"/>
    <circle id="Ellipse_9" data-name="Ellipse 9" cx="2.806" cy="2.806" r="2.806" transform="translate(150.64 32.037)" fill="#e6e6e6"/>
    <path id="Path_15" data-name="Path 15" d="M226.392,452.551l2.467-3.813a57.175,57.175,0,0,0-2.531-5.926l-1.6,1.289L226,442.148c-1.2-2.37-2.151-3.863-2.151-3.863s-4.949,7.8-6.6,16.054l3.166,4.893L216.9,456.4a23.128,23.128,0,0,0-.192,2.9c0,9.778,3.194,17.705,7.133,17.705s7.133-7.927,7.133-17.705a30.45,30.45,0,0,0-1.632-9.137Z" transform="translate(-175.546 -169.617)" fill="#07f"/>
    <path id="Path_16" data-name="Path 16" d="M246.729,465.437l4.441-.952a57.175,57.175,0,0,0,2.4-5.98l-2.039-.217,2.274-.487c.824-2.527,1.21-4.253,1.21-4.253s-9.013,2.015-16.02,6.684l-1.221,5.7-.477-4.48a23.118,23.118,0,0,0-2.187,1.915c-6.914,6.914-10.261,14.778-7.476,17.563s10.649-.561,17.563-7.476a30.45,30.45,0,0,0,5.307-7.615Z" transform="translate(-178.417 -174.025)" fill="#07f"/>
    <path id="Path_17" data-name="Path 17" d="M243.575,512.369c-10.3.659-21.52-.038-33.458,0V485.038a120.587,120.587,0,0,0,33.458,0Z" transform="translate(-173.641 -183.12)" fill="#3f3d56"/>
    <rect id="Rectangle_54" data-name="Rectangle 54" width="139.041" height="180.32" transform="translate(356.294 337.827)" fill="#e6e6e6"/>
    <rect id="Rectangle_55" data-name="Rectangle 55" width="7.242" height="170.905" transform="translate(65.9 347.242)" fill="#e6e6e6"/>
    <rect id="Rectangle_56" data-name="Rectangle 56" width="495.336" height="14.484" transform="translate(0 325.516)" fill="#e6e6e6"/>
    <rect id="Rectangle_57" data-name="Rectangle 57" width="14.484" height="14.484" transform="translate(62.279 340)" fill="#e6e6e6"/>
    <path id="Path_18" data-name="Path 18" d="M584.119,489.8l-.815,3.259H563.027L561.8,489.8H510.162v33.313H636.168V489.8Z" transform="translate(-147.351 -141.468)" fill="#3f3d56"/>
    <path id="Path_19" data-name="Path 19" d="M584.119,548.857l-.815,3.259H563.027l-1.222-3.259H510.162v33.312H636.168V548.857Z" transform="translate(-147.351 -158.527)" fill="#3f3d56"/>
    <path id="Path_20" data-name="Path 20" d="M584.119,607.918l-.815,3.259H563.027l-1.222-3.259H510.162V641.23H636.168V607.918Z" transform="translate(-147.351 -175.586)" fill="#3f3d56"/>
    <path id="Path_21" data-name="Path 21" d="M584.119,666.979l-.815,3.259H563.027l-1.222-3.259H510.162v33.312H636.168V666.979Z" transform="translate(-147.351 -192.644)" fill="#3f3d56"/>
    <path id="Path_22" data-name="Path 22" d="M360.432,447.018H317.706l1.448-18.828h39.83Z" transform="translate(-91.763 -123.675)" fill="#e6e6e6"/>
    <rect id="Rectangle_58" data-name="Rectangle 58" width="47.796" height="4.345" transform="translate(223.77 321.172)" fill="#e6e6e6"/>
    <path id="Path_23" data-name="Path 23" d="M553.552,318.128H390.25a4.345,4.345,0,0,0-4.345,4.345v99.574H557.9V322.473a4.345,4.345,0,0,0-4.344-4.345Z" transform="translate(-224.414 -134.911)" fill="#3f3d56"/>
    <path id="Path_24" data-name="Path 24" d="M385.905,464.252v16.293a4.345,4.345,0,0,0,4.345,4.345h163.3a4.345,4.345,0,0,0,4.345-4.345V464.252Z" transform="translate(-224.414 -177.117)" fill="#e6e6e6"/>
    <rect id="Rectangle_59" data-name="Rectangle 59" width="154.974" height="86.901" transform="translate(170.181 192.268)" fill="#fff"/>
    <circle id="Ellipse_10" data-name="Ellipse 10" cx="4.345" cy="4.345" r="4.345" transform="translate(243.322 292.929)" fill="#3f3d56"/>
    <path id="Path_25" data-name="Path 25" d="M1002.978,770.5c-15.827,1.012-33.071-.059-51.417,0v-42c16.165,2.517,33.4,2.258,51.417,0Z" transform="translate(-387.793 -253.439)" fill="#3f3d56"/>
    <path id="Path_26" data-name="Path 26" d="M829.667,638.828h-4.345l1.449-84.879h1.448Z" transform="translate(-238.379 -159.998)" fill="#3f3d56"/>
    <path id="Path_27" data-name="Path 27" d="M857.161,639.634h-4.345l1.449-84.879h1.448Z" transform="translate(-246.32 -160.23)" fill="#3f3d56"/>
    <path id="Path_28" data-name="Path 28" d="M805.228,639.634h-4.345l1.449-84.879h1.448Z" transform="translate(-231.32 -160.23)" fill="#3f3d56"/>
    <path id="Path_29" data-name="Path 29" d="M984.174,521.608l7.014-10.84a162.53,162.53,0,0,0-7.2-16.845l-4.536,3.663,3.591-5.55c-3.422-6.737-6.116-10.982-6.116-10.982s-14.067,22.167-18.767,45.638l9,13.91-9.964-8.048a65.724,65.724,0,0,0-.547,8.245c0,27.8,9.078,50.33,20.277,50.33s20.277-22.534,20.277-50.33c0-8.617-1.949-17.633-4.639-25.972Z" transform="translate(-389.264 -181.969)" fill="#e6e6e6"/>
    <path id="Path_30" data-name="Path 30" d="M1011.664,523.644l7.014-10.84a162.493,162.493,0,0,0-7.2-16.845l-4.536,3.663,3.591-5.55c-3.423-6.737-6.116-10.982-6.116-10.982s-14.067,22.167-18.767,45.638l9,13.91-9.964-8.048a65.723,65.723,0,0,0-.547,8.244c0,27.8,9.078,50.33,20.277,50.33s20.277-22.534,20.277-50.33c0-8.617-1.95-17.633-4.639-25.972Z" transform="translate(-397.204 -182.558)" fill="#07f"/>
    <path id="Path_31" data-name="Path 31" d="M959.735,523.644l7.014-10.84a162.519,162.519,0,0,0-7.2-16.845l-4.536,3.663,3.591-5.55c-3.422-6.737-6.115-10.982-6.115-10.982s-14.067,22.167-18.767,45.638l9,13.91-9.964-8.048a65.746,65.746,0,0,0-.547,8.244c0,27.8,9.078,50.33,20.277,50.33s20.277-22.534,20.277-50.33c0-8.617-1.949-17.633-4.639-25.972Z" transform="translate(-382.206 -182.558)" fill="#07f"/>
    <rect id="Rectangle_60" data-name="Rectangle 60" width="41.786" height="2.399" transform="translate(220.437 216.798)" fill="#3f3d56"/>
    <rect id="Rectangle_61" data-name="Rectangle 61" width="64.526" height="2.399" transform="translate(220.437 225.548)" fill="#07f"/>
    <rect id="Rectangle_62" data-name="Rectangle 62" width="52.587" height="2.399" transform="translate(220.437 233.791)" fill="#07f"/>
    <rect id="Rectangle_63" data-name="Rectangle 63" width="30.7" height="2.399" transform="translate(220.437 242.004)" fill="#3f3d56"/>
    <rect id="Rectangle_64" data-name="Rectangle 64" width="46.334" height="2.399" transform="translate(220.437 250.216)" fill="#3f3d56"/>
    <rect id="Rectangle_65" data-name="Rectangle 65" width="5.117" height="5.117" transform="translate(201.392 215.946)" fill="#3f3d56"/>
    <rect id="Rectangle_66" data-name="Rectangle 66" width="5.117" height="5.117" transform="translate(201.392 224.189)" fill="#07f"/>
    <rect id="Rectangle_67" data-name="Rectangle 67" width="5.117" height="5.117" transform="translate(201.392 232.432)" fill="#07f"/>
    <rect id="Rectangle_68" data-name="Rectangle 68" width="5.117" height="5.117" transform="translate(201.392 240.676)" fill="#3f3d56"/>
    <rect id="Rectangle_69" data-name="Rectangle 69" width="5.117" height="5.117" transform="translate(201.392 248.919)" fill="#3f3d56"/>
    <path id="Path_32" data-name="Path 32" d="M596.581,348.345H574.653a76.7,76.7,0,0,1,0-26.145h21.928A47.044,47.044,0,0,0,596.581,348.345Z" transform="translate(-278.606 -136.088)" fill="#07f"/>
    <path id="Path_33" data-name="Path 33" d="M368.483,408.108l-9.021-2.2a23.224,23.224,0,0,1-22.793-27.824h0a30.356,30.356,0,0,1,30.318-30.394h0a30.356,30.356,0,0,1,30.394,30.318h0A24.123,24.123,0,0,1,368.483,408.108Z" transform="translate(-210.06 -143.45)" fill="#2f2e41"/>
    <circle id="Ellipse_11" data-name="Ellipse 11" cx="22.305" cy="22.305" r="22.305" transform="translate(145.972 223.221)" fill="#ffb8b8"/>
    <path id="Path_34" data-name="Path 34" d="M370.537,422.108s-6.788,23.275-10.668,25.214,31.033,4.849,31.033,4.849-.97-22.3.97-24.244S370.537,422.108,370.537,422.108Z" transform="translate(-216.807 -164.944)" fill="#ffb8b8"/>
    <path id="Path_35" data-name="Path 35" d="M403.2,623.735s43.64-3.879,49.459,10.667-3.879,100.857-3.879,100.857H430.357V664.466s-78.565-22.332-78.565-30.09S403.2,623.735,403.2,623.735Z" transform="translate(-214.561 -223.045)" fill="#2f2e41"/>
    <path id="Path_36" data-name="Path 36" d="M477.343,775.29l9.7,3.879s11.637-.97,6.788,7.758a19.2,19.2,0,0,1-13.577,9.7s-18.426,6.788-19.4,0,4.849-20.365,4.849-20.365Z" transform="translate(-246.031 -266.954)" fill="#2f2e41"/>
    <path id="Path_37" data-name="Path 37" d="M377.934,621.042s43.64-3.879,49.459,10.668-3.879,100.857-3.879,100.857H405.088V661.773S349.32,648.855,349.32,641.1c0-3.645-3.8-22.168,2.9-26.07C359.775,610.622,377.934,621.042,377.934,621.042Z" transform="translate(-213.537 -220.351)" fill="#2f2e41"/>
    <path id="Path_38" data-name="Path 38" d="M443.252,775.29l9.7,3.879s11.637-.97,6.789,7.758a19.2,19.2,0,0,1-13.577,9.7s-18.426,6.788-19.4,0,4.849-20.365,4.849-20.365Z" transform="translate(-236.184 -266.954)" fill="#2f2e41"/>
    <path id="Path_39" data-name="Path 39" d="M355.436,453.471l29.144,3.168a21.465,21.465,0,0,1,18.682,16.9l11.331,53.633s3.879,53.338-3.879,56.247-18.426-11.637-32.972-9.7-33.457,6.3-33.457,6.3-3-95.472-3.395-103.281C340.107,461.135,355.436,453.471,355.436,453.471Z" transform="translate(-211.404 -174.003)" fill="#575a89"/>
    <path id="Path_40" data-name="Path 40" d="M456.088,627.823l11.965,7.046s21.465-3.08,20.795,4.465-24.1,6.087-24.1,6.087l-14.419-8.885Z" transform="translate(-243.021 -224.361)" fill="#ffb8b8"/>
    <circle id="Ellipse_12" data-name="Ellipse 12" cx="14.408" cy="14.408" r="14.408" transform="translate(110.575 198.569)" fill="#2f2e41"/>
    <path id="Path_41" data-name="Path 41" d="M346.26,342.795a14.4,14.4,0,0,0-17.243-14.107A14.4,14.4,0,1,1,338,355.83,14.4,14.4,0,0,0,346.26,342.795Z" transform="translate(-207.983 -137.563)" fill="#2f2e41"/>
    <path id="Path_42" data-name="Path 42" d="M362.31,359.122l19.424-3.577,14.938,9.362a22.66,22.66,0,0,1,10.438,22.114L392.15,383.23l-3.35-8.4-3.99,6.54-20.862,26.847-11.713-7.459-10.442-16.364Z" transform="translate(-211.673 -145.719)" fill="#2f2e41"/>
    <path id="Path_43" data-name="Path 43" d="M393.136,463.1l9.7-4.849s20.365,2.909,24.245,16.486,21.335,107.645,21.335,107.645l-16.487,7.758-23.275-57.217Z" transform="translate(-226.503 -175.384)" fill="#575a89"/>
    <path id="Path_44" data-name="Path 44" d="M245.917,458.23l9.706,37.674,17.212,42.312-.6,1.465-20.528-43.07Z" transform="translate(-71.028 -132.351)" opacity="0.2"/>
    <path id="Path_45" data-name="Path 45" d="M142.694,709.9l-3.423-1.179,33.158-98.49,4.793,1.651Z" transform="translate(-40.226 -176.254)" fill="#3f3d56"/>
    <path id="Path_46" data-name="Path 46" d="M308.268,709.9l3.424-1.179-33.159-98.49-4.793,1.651Z" transform="translate(-79.065 -176.254)" fill="#3f3d56"/>
    <path id="Path_47" data-name="Path 47" d="M223.639,732.22l3.621.013L228.384,617.1l-5.069-.018Z" transform="translate(-64.5 -178.232)" fill="#3f3d56"/>
    <path id="Path_48" data-name="Path 48" d="M290.934,581.34l9.932,40.142a31.879,31.879,0,0,0,23.214,23.271h0a169.443,169.443,0,0,0,84.307-.543l14.829-3.911a20.929,20.929,0,0,0,15.709-18.562,18.267,18.267,0,0,0-1.652-9.154q-.087-.184-.175-.366a24.226,24.226,0,0,0-21.049-13.611L400.34,598.1l-57.21-25.346s-19.676-9.994-35.851-11.113A15.864,15.864,0,0,0,290.934,581.34Z" transform="translate(-196.847 -205.234)" fill="#07f"/>
    <rect id="Rectangle_70" data-name="Rectangle 70" width="56.486" height="76.763" transform="translate(386.348 249.84)" fill="#e6e6e6"/>
    <rect id="Rectangle_71" data-name="Rectangle 71" width="43.451" height="59.048" transform="translate(392.865 258.698)" fill="#fff"/>
    <rect id="Rectangle_72" data-name="Rectangle 72" width="21.052" height="2.399" transform="translate(409.965 274.15)" fill="#3f3d56"/>
    <rect id="Rectangle_73" data-name="Rectangle 73" width="5.117" height="5.117" transform="translate(398.162 272.822)" fill="#3f3d56"/>
    <rect id="Rectangle_74" data-name="Rectangle 74" width="21.052" height="2.399" transform="translate(409.965 284.288)" fill="#3f3d56"/>
    <rect id="Rectangle_75" data-name="Rectangle 75" width="5.117" height="5.117" transform="translate(398.162 282.961)" fill="#3f3d56"/>
    <rect id="Rectangle_76" data-name="Rectangle 76" width="21.052" height="2.399" transform="translate(409.965 294.427)" fill="#3f3d56"/>
    <rect id="Rectangle_77" data-name="Rectangle 77" width="5.117" height="5.117" transform="translate(398.162 293.099)" fill="#3f3d56"/>
    <rect id="Rectangle_78" data-name="Rectangle 78" width="4.345" height="4.345" rx="2.173" transform="translate(412.418 252.013)" fill="#3f3d56"/>
  </g>
</svg>
